<?xml version="1.0" encoding="UTF-8"?>
<svg width="110px" height="66px" viewBox="0 0 110 66" version="1.1" xmlns="http://www.w3.org/2000/svg" xmlns:xlink="http://www.w3.org/1999/xlink">
    <!-- Generator: Sketch 55.2 (78181) - https://sketchapp.com -->
    <title>Tp small</title>
    <desc>Created with Sketch.</desc>
    <g id="Tp-small" stroke="none" stroke-width="1" fill="none" fill-rule="evenodd">
        <rect fill="#FFFFFF" x="0" y="0" width="110" height="66"></rect>
        <g id="Group" transform="translate(4.000000, 8.000000)" fill-rule="nonzero">
            <g id="Trustpilot_brandmark_gr-blk_RGB">
                <g id="Type" transform="translate(27.000000, 8.909091)" fill="#191919">
                    <path d="M0.0636363636,0.0545454545 L10.4909091,0.0545454545 L10.4909091,2 L6.39090909,2 L6.39090909,12.9363636 L4.13636364,12.9363636 L4.13636364,2 L0.0545454545,2 L0.0545454545,0.0545454545 L0.0636363636,0.0545454545 Z M10.0454545,3.60909091 L11.9727273,3.60909091 L11.9727273,5.40909091 L12.0090909,5.40909091 C12.0727273,5.15454545 12.1909091,4.90909091 12.3636364,4.67272727 C12.5363636,4.43636364 12.7454545,4.20909091 12.9909091,4.01818182 C13.2363636,3.81818182 13.5090909,3.66363636 13.8090909,3.53636364 C14.1090909,3.41818182 14.4181818,3.35454545 14.7272727,3.35454545 C14.9636364,3.35454545 15.1363636,3.36363636 15.2272727,3.37272727 C15.3181818,3.38181818 15.4090909,3.4 15.5090909,3.40909091 L15.5090909,5.39090909 C15.3636364,5.36363636 15.2181818,5.34545455 15.0636364,5.32727273 C14.9090909,5.30909091 14.7636364,5.3 14.6181818,5.3 C14.2727273,5.3 13.9454545,5.37272727 13.6363636,5.50909091 C13.3272727,5.64545455 13.0636364,5.85454545 12.8363636,6.11818182 C12.6090909,6.39090909 12.4272727,6.71818182 12.2909091,7.11818182 C12.1545455,7.51818182 12.0909091,7.97272727 12.0909091,8.49090909 L12.0909091,12.9272727 L10.0363636,12.9272727 L10.0363636,3.60909091 L10.0454545,3.60909091 Z M24.9545455,12.9363636 L22.9363636,12.9363636 L22.9363636,11.6363636 L22.9,11.6363636 C22.6454545,12.1090909 22.2727273,12.4818182 21.7727273,12.7636364 C21.2727273,13.0454545 20.7636364,13.1909091 20.2454545,13.1909091 C19.0181818,13.1909091 18.1272727,12.8909091 17.5818182,12.2818182 C17.0363636,11.6727273 16.7636364,10.7545455 16.7636364,9.52727273 L16.7636364,3.60909091 L18.8181818,3.60909091 L18.8181818,9.32727273 C18.8181818,10.1454545 18.9727273,10.7272727 19.2909091,11.0636364 C19.6,11.4 20.0454545,11.5727273 20.6090909,11.5727273 C21.0454545,11.5727273 21.4,11.5090909 21.6909091,11.3727273 C21.9818182,11.2363636 22.2181818,11.0636364 22.3909091,10.8363636 C22.5727273,10.6181818 22.7,10.3454545 22.7818182,10.0363636 C22.8636364,9.72727273 22.9,9.39090909 22.9,9.02727273 L22.9,3.61818182 L24.9545455,3.61818182 L24.9545455,12.9363636 Z M28.4545455,9.94545455 C28.5181818,10.5454545 28.7454545,10.9636364 29.1363636,11.2090909 C29.5363636,11.4454545 30.0090909,11.5727273 30.5636364,11.5727273 C30.7545455,11.5727273 30.9727273,11.5545455 31.2181818,11.5272727 C31.4636364,11.5 31.7,11.4363636 31.9090909,11.3545455 C32.1272727,11.2727273 32.3,11.1454545 32.4454545,10.9818182 C32.5818182,10.8181818 32.6454545,10.6090909 32.6363636,10.3454545 C32.6272727,10.0818182 32.5272727,9.86363636 32.3454545,9.7 C32.1636364,9.52727273 31.9363636,9.4 31.6545455,9.29090909 C31.3727273,9.19090909 31.0545455,9.1 30.6909091,9.02727273 C30.3272727,8.95454545 29.9636364,8.87272727 29.5909091,8.79090909 C29.2090909,8.70909091 28.8363636,8.6 28.4818182,8.48181818 C28.1272727,8.36363636 27.8090909,8.2 27.5272727,7.99090909 C27.2454545,7.79090909 27.0181818,7.52727273 26.8545455,7.20909091 C26.6818182,6.89090909 26.6,6.5 26.6,6.02727273 C26.6,5.51818182 26.7272727,5.1 26.9727273,4.75454545 C27.2181818,4.40909091 27.5363636,4.13636364 27.9090909,3.92727273 C28.2909091,3.71818182 28.7090909,3.57272727 29.1727273,3.48181818 C29.6363636,3.4 30.0818182,3.35454545 30.5,3.35454545 C30.9818182,3.35454545 31.4454545,3.40909091 31.8818182,3.50909091 C32.3181818,3.60909091 32.7181818,3.77272727 33.0727273,4.00909091 C33.4272727,4.23636364 33.7181818,4.53636364 33.9545455,4.9 C34.1909091,5.26363636 34.3363636,5.70909091 34.4,6.22727273 L32.2545455,6.22727273 C32.1545455,5.73636364 31.9363636,5.4 31.5818182,5.23636364 C31.2272727,5.06363636 30.8181818,4.98181818 30.3636364,4.98181818 C30.2181818,4.98181818 30.0454545,4.99090909 29.8454545,5.01818182 C29.6454545,5.04545455 29.4636364,5.09090909 29.2818182,5.15454545 C29.1090909,5.21818182 28.9636364,5.31818182 28.8363636,5.44545455 C28.7181818,5.57272727 28.6545455,5.73636364 28.6545455,5.94545455 C28.6545455,6.2 28.7454545,6.4 28.9181818,6.55454545 C29.0909091,6.70909091 29.3181818,6.83636364 29.6,6.94545455 C29.8818182,7.04545455 30.2,7.13636364 30.5636364,7.20909091 C30.9272727,7.28181818 31.3,7.36363636 31.6818182,7.44545455 C32.0545455,7.52727273 32.4181818,7.63636364 32.7818182,7.75454545 C33.1454545,7.87272727 33.4636364,8.03636364 33.7454545,8.24545455 C34.0272727,8.45454545 34.2545455,8.70909091 34.4272727,9.01818182 C34.6,9.32727273 34.6909091,9.71818182 34.6909091,10.1727273 C34.6909091,10.7272727 34.5636364,11.1909091 34.3090909,11.5818182 C34.0545455,11.9636364 33.7272727,12.2818182 33.3272727,12.5181818 C32.9272727,12.7545455 32.4727273,12.9363636 31.9818182,13.0454545 C31.4909091,13.1545455 31,13.2090909 30.5181818,13.2090909 C29.9272727,13.2090909 29.3818182,13.1454545 28.8818182,13.0090909 C28.3818182,12.8727273 27.9454545,12.6727273 27.5818182,12.4090909 C27.2181818,12.1363636 26.9272727,11.8 26.7181818,11.4 C26.5090909,11 26.4,10.5181818 26.3818182,9.96363636 L28.4545455,9.96363636 L28.4545455,9.94545455 Z M35.2363636,3.60909091 L36.7909091,3.60909091 L36.7909091,0.809090909 L38.8454545,0.809090909 L38.8454545,3.60909091 L40.7,3.60909091 L40.7,5.14545455 L38.8454545,5.14545455 L38.8454545,10.1272727 C38.8454545,10.3454545 38.8545455,10.5272727 38.8727273,10.6909091 C38.8909091,10.8454545 38.9363636,10.9818182 39,11.0909091 C39.0636364,11.2 39.1636364,11.2818182 39.3,11.3363636 C39.4363636,11.3909091 39.6090909,11.4181818 39.8454545,11.4181818 C39.9909091,11.4181818 40.1363636,11.4181818 40.2818182,11.4090909 C40.4272727,11.4 40.5727273,11.3818182 40.7181818,11.3454545 L40.7181818,12.9363636 C40.4909091,12.9636364 40.2636364,12.9818182 40.0545455,13.0090909 C39.8363636,13.0363636 39.6181818,13.0454545 39.3909091,13.0454545 C38.8454545,13.0454545 38.4090909,12.9909091 38.0818182,12.8909091 C37.7545455,12.7909091 37.4909091,12.6363636 37.3090909,12.4363636 C37.1181818,12.2363636 37,11.9909091 36.9272727,11.6909091 C36.8636364,11.3909091 36.8181818,11.0454545 36.8090909,10.6636364 L36.8090909,5.16363636 L35.2545455,5.16363636 L35.2545455,3.60909091 L35.2363636,3.60909091 Z M42.1545455,3.60909091 L44.1,3.60909091 L44.1,4.87272727 L44.1363636,4.87272727 C44.4272727,4.32727273 44.8272727,3.94545455 45.3454545,3.70909091 C45.8636364,3.47272727 46.4181818,3.35454545 47.0272727,3.35454545 C47.7636364,3.35454545 48.4,3.48181818 48.9454545,3.74545455 C49.4909091,4 49.9454545,4.35454545 50.3090909,4.80909091 C50.6727273,5.26363636 50.9363636,5.79090909 51.1181818,6.39090909 C51.3,6.99090909 51.3909091,7.63636364 51.3909091,8.31818182 C51.3909091,8.94545455 51.3090909,9.55454545 51.1454545,10.1363636 C50.9818182,10.7272727 50.7363636,11.2454545 50.4090909,11.7 C50.0818182,12.1545455 49.6636364,12.5090909 49.1545455,12.7818182 C48.6454545,13.0545455 48.0545455,13.1909091 47.3636364,13.1909091 C47.0636364,13.1909091 46.7636364,13.1636364 46.4636364,13.1090909 C46.1636364,13.0545455 45.8727273,12.9636364 45.6,12.8454545 C45.3272727,12.7272727 45.0636364,12.5727273 44.8363636,12.3818182 C44.6,12.1909091 44.4090909,11.9727273 44.2454545,11.7272727 L44.2090909,11.7272727 L44.2090909,16.3818182 L42.1545455,16.3818182 L42.1545455,3.60909091 L42.1545455,3.60909091 Z M49.3363636,8.28181818 C49.3363636,7.86363636 49.2818182,7.45454545 49.1727273,7.05454545 C49.0636364,6.65454545 48.9,6.30909091 48.6818182,6 C48.4636364,5.69090909 48.1909091,5.44545455 47.8727273,5.26363636 C47.5454545,5.08181818 47.1727273,4.98181818 46.7545455,4.98181818 C45.8909091,4.98181818 45.2363636,5.28181818 44.8,5.88181818 C44.3636364,6.48181818 44.1454545,7.28181818 44.1454545,8.28181818 C44.1454545,8.75454545 44.2,9.19090909 44.3181818,9.59090909 C44.4363636,9.99090909 44.6,10.3363636 44.8363636,10.6272727 C45.0636364,10.9181818 45.3363636,11.1454545 45.6545455,11.3090909 C45.9727273,11.4818182 46.3454545,11.5636364 46.7636364,11.5636364 C47.2363636,11.5636364 47.6272727,11.4636364 47.9545455,11.2727273 C48.2818182,11.0818182 48.5454545,10.8272727 48.7545455,10.5272727 C48.9636364,10.2181818 49.1181818,9.87272727 49.2090909,9.48181818 C49.2909091,9.09090909 49.3363636,8.69090909 49.3363636,8.28181818 Z M52.9636364,0.0545454545 L55.0181818,0.0545454545 L55.0181818,2 L52.9636364,2 L52.9636364,0.0545454545 Z M52.9636364,3.60909091 L55.0181818,3.60909091 L55.0181818,12.9363636 L52.9636364,12.9363636 L52.9636364,3.60909091 Z M56.8545455,0.0545454545 L58.9090909,0.0545454545 L58.9090909,12.9363636 L56.8545455,12.9363636 L56.8545455,0.0545454545 Z M65.2090909,13.1909091 C64.4636364,13.1909091 63.8,13.0636364 63.2181818,12.8181818 C62.6363636,12.5727273 62.1454545,12.2272727 61.7363636,11.8 C61.3363636,11.3636364 61.0272727,10.8454545 60.8181818,10.2454545 C60.6090909,9.64545455 60.5,8.98181818 60.5,8.26363636 C60.5,7.55454545 60.6090909,6.9 60.8181818,6.3 C61.0272727,5.7 61.3363636,5.18181818 61.7363636,4.74545455 C62.1363636,4.30909091 62.6363636,3.97272727 63.2181818,3.72727273 C63.8,3.48181818 64.4636364,3.35454545 65.2090909,3.35454545 C65.9545455,3.35454545 66.6181818,3.48181818 67.2,3.72727273 C67.7818182,3.97272727 68.2727273,4.31818182 68.6818182,4.74545455 C69.0818182,5.18181818 69.3909091,5.7 69.6,6.3 C69.8090909,6.9 69.9181818,7.55454545 69.9181818,8.26363636 C69.9181818,8.98181818 69.8090909,9.64545455 69.6,10.2454545 C69.3909091,10.8454545 69.0818182,11.3636364 68.6818182,11.8 C68.2818182,12.2363636 67.7818182,12.5727273 67.2,12.8181818 C66.6181818,13.0636364 65.9545455,13.1909091 65.2090909,13.1909091 Z M65.2090909,11.5636364 C65.6636364,11.5636364 66.0636364,11.4636364 66.4,11.2727273 C66.7363636,11.0818182 67.0090909,10.8272727 67.2272727,10.5181818 C67.4454545,10.2090909 67.6,9.85454545 67.7090909,9.46363636 C67.8090909,9.07272727 67.8636364,8.67272727 67.8636364,8.26363636 C67.8636364,7.86363636 67.8090909,7.47272727 67.7090909,7.07272727 C67.6090909,6.67272727 67.4454545,6.32727273 67.2272727,6.01818182 C67.0090909,5.70909091 66.7363636,5.46363636 66.4,5.27272727 C66.0636364,5.08181818 65.6636364,4.98181818 65.2090909,4.98181818 C64.7545455,4.98181818 64.3545455,5.08181818 64.0181818,5.27272727 C63.6818182,5.46363636 63.4090909,5.71818182 63.1909091,6.01818182 C62.9727273,6.32727273 62.8181818,6.67272727 62.7090909,7.07272727 C62.6090909,7.47272727 62.5545455,7.86363636 62.5545455,8.26363636 C62.5545455,8.67272727 62.6090909,9.07272727 62.7090909,9.46363636 C62.8090909,9.85454545 62.9727273,10.2090909 63.1909091,10.5181818 C63.4090909,10.8272727 63.6818182,11.0818182 64.0181818,11.2727273 C64.3545455,11.4727273 64.7545455,11.5636364 65.2090909,11.5636364 Z M70.5181818,3.60909091 L72.0727273,3.60909091 L72.0727273,0.809090909 L74.1272727,0.809090909 L74.1272727,3.60909091 L75.9818182,3.60909091 L75.9818182,5.14545455 L74.1272727,5.14545455 L74.1272727,10.1272727 C74.1272727,10.3454545 74.1363636,10.5272727 74.1545455,10.6909091 C74.1727273,10.8454545 74.2181818,10.9818182 74.2818182,11.0909091 C74.3454545,11.2 74.4454545,11.2818182 74.5818182,11.3363636 C74.7181818,11.3909091 74.8909091,11.4181818 75.1272727,11.4181818 C75.2727273,11.4181818 75.4181818,11.4181818 75.5636364,11.4090909 C75.7090909,11.4 75.8545455,11.3818182 76,11.3454545 L76,12.9363636 C75.7727273,12.9636364 75.5454545,12.9818182 75.3363636,13.0090909 C75.1181818,13.0363636 74.9,13.0454545 74.6727273,13.0454545 C74.1272727,13.0454545 73.6909091,12.9909091 73.3636364,12.8909091 C73.0363636,12.7909091 72.7727273,12.6363636 72.5909091,12.4363636 C72.4,12.2363636 72.2818182,11.9909091 72.2090909,11.6909091 C72.1454545,11.3909091 72.1,11.0454545 72.0909091,10.6636364 L72.0909091,5.16363636 L70.5363636,5.16363636 L70.5363636,3.60909091 L70.5181818,3.60909091 Z" id="Shape"></path>
                </g>
                <g id="Star">
                    <polygon id="Path" fill="#00B67A" points="24.6636364 8.96363636 15.2454545 8.96363636 12.3363636 0 9.41818182 8.96363636 0 8.95454545 7.62727273 14.5 4.70909091 23.4545455 12.3363636 17.9181818 19.9545455 23.4545455 17.0454545 14.5 24.6636364 8.96363636 24.6636364 8.96363636"></polygon>
                    <polygon id="Path" fill="#005128" points="17.7 16.5272727 17.0454545 14.5 12.3363636 17.9181818"></polygon>
                </g>
            </g>
            <g id="Trustpilot_ratings_4star-RGB" transform="translate(0.000000, 30.363636)">
                <rect id="Rectangle-path" fill="#73CF11" x="0" y="0" width="19.3125" height="19.2727273"></rect>
                <rect id="Rectangle-path" fill="#73CF11" x="20.921875" y="0" width="19.3125" height="19.2727273"></rect>
                <rect id="Rectangle-path" fill="#73CF11" x="41.84375" y="0" width="19.3125" height="19.2727273"></rect>
                <rect id="Rectangle-path" fill="#73CF11" x="62.765625" y="0" width="19.3125" height="19.2727273"></rect>
                <rect id="Rectangle-path" fill="#DCDCE6" x="83.6875" y="0" width="19.3125" height="19.2727273"></rect>
                <path d="M9.65625,12.9890152 L12.5933594,12.2462121 L13.8205078,16.0204545 L9.65625,12.9890152 Z M16.415625,8.11060606 L11.2455078,8.11060606 L9.65625,3.25227273 L8.06699219,8.11060606 L2.896875,8.11060606 L7.08125,11.1219697 L5.49199219,15.980303 L9.67636719,12.9689394 L12.2513672,11.1219697 L16.415625,8.11060606 L16.415625,8.11060606 L16.415625,8.11060606 L16.415625,8.11060606 Z" id="Shape" fill="#FFFFFF"></path>
                <path d="M30.578125,12.9890152 L33.5152344,12.2462121 L34.7423828,16.0204545 L30.578125,12.9890152 Z M37.3375,8.11060606 L32.1673828,8.11060606 L30.578125,3.25227273 L28.9888672,8.11060606 L23.81875,8.11060606 L28.003125,11.1219697 L26.4138672,15.980303 L30.5982422,12.9689394 L33.1732422,11.1219697 L37.3375,8.11060606 L37.3375,8.11060606 L37.3375,8.11060606 L37.3375,8.11060606 Z" id="Shape" fill="#FFFFFF"></path>
                <path d="M51.5,12.9890152 L54.4371094,12.2462121 L55.6642578,16.0204545 L51.5,12.9890152 Z M58.259375,8.11060606 L53.0892578,8.11060606 L51.5,3.25227273 L49.9107422,8.11060606 L44.740625,8.11060606 L48.925,11.1219697 L47.3357422,15.980303 L51.5201172,12.9689394 L54.0951172,11.1219697 L58.259375,8.11060606 L58.259375,8.11060606 L58.259375,8.11060606 L58.259375,8.11060606 Z" id="Shape" fill="#FFFFFF"></path>
                <path d="M72.421875,12.9890152 L75.3589844,12.2462121 L76.5861328,16.0204545 L72.421875,12.9890152 Z M79.18125,8.11060606 L74.0111328,8.11060606 L72.421875,3.25227273 L70.8326172,8.11060606 L65.6625,8.11060606 L69.846875,11.1219697 L68.2576172,15.980303 L72.4419922,12.9689394 L75.0169922,11.1219697 L79.18125,8.11060606 L79.18125,8.11060606 L79.18125,8.11060606 L79.18125,8.11060606 Z" id="Shape" fill="#FFFFFF"></path>
                <path d="M93.34375,12.9890152 L96.2808594,12.2462121 L97.5080078,16.0204545 L93.34375,12.9890152 Z M100.103125,8.11060606 L94.9330078,8.11060606 L93.34375,3.25227273 L91.7544922,8.11060606 L86.584375,8.11060606 L90.76875,11.1219697 L89.1794922,15.980303 L93.3638672,12.9689394 L95.9388672,11.1219697 L100.103125,8.11060606 L100.103125,8.11060606 L100.103125,8.11060606 L100.103125,8.11060606 Z" id="Shape" fill="#FFFFFF"></path>
            </g>
        </g>
    </g>
</svg>