<?xml version="1.0" encoding="UTF-8"?>
<svg width="1278px" height="645px" viewBox="0 0 1278 645" version="1.1" xmlns="http://www.w3.org/2000/svg" xmlns:xlink="http://www.w3.org/1999/xlink">
    <!-- Generator: Sketch 55.2 (78181) - https://sketchapp.com -->
    <title>TP large no strap</title>
    <desc>Created with Sketch.</desc>
    <g id="TP-large-no-strap" stroke="none" stroke-width="1" fill="none" fill-rule="evenodd">
        <rect fill="#FFFFFF" x="0" y="0" width="1278" height="645"></rect>
        <g id="Group" transform="translate(73.000000, 49.000000)" fill-rule="nonzero">
            <g id="Trustpilot_brandmark_gr-blk_RGB">
                <g id="Type" transform="translate(297.000000, 98.000000)" fill="#191919">
                    <path d="M0.7,0.6 L115.4,0.6 L115.4,22 L70.3,22 L70.3,142.3 L45.5,142.3 L45.5,22 L0.6,22 L0.6,0.6 L0.7,0.6 Z M110.5,39.7 L131.7,39.7 L131.7,59.5 L132.1,59.5 C132.8,56.7 134.1,54 136,51.4 C137.9,48.8 140.2,46.3 142.9,44.2 C145.6,42 148.6,40.3 151.9,38.9 C155.2,37.6 158.6,36.9 162,36.9 C164.6,36.9 166.5,37 167.5,37.1 C168.5,37.2 169.5,37.4 170.6,37.5 L170.6,59.3 C169,59 167.4,58.8 165.7,58.6 C164,58.4 162.4,58.3 160.8,58.3 C157,58.3 153.4,59.1 150,60.6 C146.6,62.1 143.7,64.4 141.2,67.3 C138.7,70.3 136.7,73.9 135.2,78.3 C133.7,82.7 133,87.7 133,93.4 L133,142.2 L110.4,142.2 L110.4,39.7 L110.5,39.7 Z M274.5,142.3 L252.3,142.3 L252.3,128 L251.9,128 C249.1,133.2 245,137.3 239.5,140.4 C234,143.5 228.4,145.1 222.7,145.1 C209.2,145.1 199.4,141.8 193.4,135.1 C187.4,128.4 184.4,118.3 184.4,104.8 L184.4,39.7 L207,39.7 L207,102.6 C207,111.6 208.7,118 212.2,121.7 C215.6,125.4 220.5,127.3 226.7,127.3 C231.5,127.3 235.4,126.6 238.6,125.1 C241.8,123.6 244.4,121.7 246.3,119.2 C248.3,116.8 249.7,113.8 250.6,110.4 C251.5,107 251.9,103.3 251.9,99.3 L251.9,39.8 L274.5,39.8 L274.5,142.3 Z M313,109.4 C313.7,116 316.2,120.6 320.5,123.3 C324.9,125.9 330.1,127.3 336.2,127.3 C338.3,127.3 340.7,127.1 343.4,126.8 C346.1,126.5 348.7,125.8 351,124.9 C353.4,124 355.3,122.6 356.9,120.8 C358.4,119 359.1,116.7 359,113.8 C358.9,110.9 357.8,108.5 355.8,106.7 C353.8,104.8 351.3,103.4 348.2,102.2 C345.1,101.1 341.6,100.1 337.6,99.3 C333.6,98.5 329.6,97.6 325.5,96.7 C321.3,95.8 317.2,94.6 313.3,93.3 C309.4,92 305.9,90.2 302.8,87.9 C299.7,85.7 297.2,82.8 295.4,79.3 C293.5,75.8 292.6,71.5 292.6,66.3 C292.6,60.7 294,56.1 296.7,52.3 C299.4,48.5 302.9,45.5 307,43.2 C311.2,40.9 315.8,39.3 320.9,38.3 C326,37.4 330.9,36.9 335.5,36.9 C340.8,36.9 345.9,37.5 350.7,38.6 C355.5,39.7 359.9,41.5 363.8,44.1 C367.7,46.6 370.9,49.9 373.5,53.9 C376.1,57.9 377.7,62.8 378.4,68.5 L354.8,68.5 C353.7,63.1 351.3,59.4 347.4,57.6 C343.5,55.7 339,54.8 334,54.8 C332.4,54.8 330.5,54.9 328.3,55.2 C326.1,55.5 324.1,56 322.1,56.7 C320.2,57.4 318.6,58.5 317.2,59.9 C315.9,61.3 315.2,63.1 315.2,65.4 C315.2,68.2 316.2,70.4 318.1,72.1 C320,73.8 322.5,75.2 325.6,76.4 C328.7,77.5 332.2,78.5 336.2,79.3 C340.2,80.1 344.3,81 348.5,81.9 C352.6,82.8 356.6,84 360.6,85.3 C364.6,86.6 368.1,88.4 371.2,90.7 C374.3,93 376.8,95.8 378.7,99.2 C380.6,102.6 381.6,106.9 381.6,111.9 C381.6,118 380.2,123.1 377.4,127.4 C374.6,131.6 371,135.1 366.6,137.7 C362.2,140.3 357.2,142.3 351.8,143.5 C346.4,144.7 341,145.3 335.7,145.3 C329.2,145.3 323.2,144.6 317.7,143.1 C312.2,141.6 307.4,139.4 303.4,136.5 C299.4,133.5 296.2,129.8 293.9,125.4 C291.6,121 290.4,115.7 290.2,109.6 L313,109.6 L313,109.4 Z M387.6,39.7 L404.7,39.7 L404.7,8.9 L427.3,8.9 L427.3,39.7 L447.7,39.7 L447.7,56.6 L427.3,56.6 L427.3,111.4 C427.3,113.8 427.4,115.8 427.6,117.6 C427.8,119.3 428.3,120.8 429,122 C429.7,123.2 430.8,124.1 432.3,124.7 C433.8,125.3 435.7,125.6 438.3,125.6 C439.9,125.6 441.5,125.6 443.1,125.5 C444.7,125.4 446.3,125.2 447.9,124.8 L447.9,142.3 C445.4,142.6 442.9,142.8 440.6,143.1 C438.2,143.4 435.8,143.5 433.3,143.5 C427.3,143.5 422.5,142.9 418.9,141.8 C415.3,140.7 412.4,139 410.4,136.8 C408.3,134.6 407,131.9 406.2,128.6 C405.5,125.3 405,121.5 404.9,117.3 L404.9,56.8 L387.8,56.8 L387.8,39.7 L387.6,39.7 Z M463.7,39.7 L485.1,39.7 L485.1,53.6 L485.5,53.6 C488.7,47.6 493.1,43.4 498.8,40.8 C504.5,38.2 510.6,36.9 517.3,36.9 C525.4,36.9 532.4,38.3 538.4,41.2 C544.4,44 549.4,47.9 553.4,52.9 C557.4,57.9 560.3,63.7 562.3,70.3 C564.3,76.9 565.3,84 565.3,91.5 C565.3,98.4 564.4,105.1 562.6,111.5 C560.8,118 558.1,123.7 554.5,128.7 C550.9,133.7 546.3,137.6 540.7,140.6 C535.1,143.6 528.6,145.1 521,145.1 C517.7,145.1 514.4,144.8 511.1,144.2 C507.8,143.6 504.6,142.6 501.6,141.3 C498.6,140 495.7,138.3 493.2,136.2 C490.6,134.1 488.5,131.7 486.7,129 L486.3,129 L486.3,180.2 L463.7,180.2 L463.7,39.7 L463.7,39.7 Z M542.7,91.1 C542.7,86.5 542.1,82 540.9,77.6 C539.7,73.2 537.9,69.4 535.5,66 C533.1,62.6 530.1,59.9 526.6,57.9 C523,55.9 518.9,54.8 514.3,54.8 C504.8,54.8 497.6,58.1 492.8,64.7 C488,71.3 485.6,80.1 485.6,91.1 C485.6,96.3 486.2,101.1 487.5,105.5 C488.8,109.9 490.6,113.7 493.2,116.9 C495.7,120.1 498.7,122.6 502.2,124.4 C505.7,126.3 509.8,127.2 514.4,127.2 C519.6,127.2 523.9,126.1 527.5,124 C531.1,121.9 534,119.1 536.3,115.8 C538.6,112.4 540.3,108.6 541.3,104.3 C542.2,100 542.7,95.6 542.7,91.1 Z M582.6,0.6 L605.2,0.6 L605.2,22 L582.6,22 L582.6,0.6 Z M582.6,39.7 L605.2,39.7 L605.2,142.3 L582.6,142.3 L582.6,39.7 Z M625.4,0.6 L648,0.6 L648,142.3 L625.4,142.3 L625.4,0.6 Z M717.3,145.1 C709.1,145.1 701.8,143.7 695.4,141 C689,138.3 683.6,134.5 679.1,129.8 C674.7,125 671.3,119.3 669,112.7 C666.7,106.1 665.5,98.8 665.5,90.9 C665.5,83.1 666.7,75.9 669,69.3 C671.3,62.7 674.7,57 679.1,52.2 C683.5,47.4 689,43.7 695.4,41 C701.8,38.3 709.1,36.9 717.3,36.9 C725.5,36.9 732.8,38.3 739.2,41 C745.6,43.7 751,47.5 755.5,52.2 C759.9,57 763.3,62.7 765.6,69.3 C767.9,75.9 769.1,83.1 769.1,90.9 C769.1,98.8 767.9,106.1 765.6,112.7 C763.3,119.3 759.9,125 755.5,129.8 C751.1,134.6 745.6,138.3 739.2,141 C732.8,143.7 725.5,145.1 717.3,145.1 Z M717.3,127.2 C722.3,127.2 726.7,126.1 730.4,124 C734.1,121.9 737.1,119.1 739.5,115.7 C741.9,112.3 743.6,108.4 744.8,104.1 C745.9,99.8 746.5,95.4 746.5,90.9 C746.5,86.5 745.9,82.2 744.8,77.8 C743.7,73.4 741.9,69.6 739.5,66.2 C737.1,62.8 734.1,60.1 730.4,58 C726.7,55.9 722.3,54.8 717.3,54.8 C712.3,54.8 707.9,55.9 704.2,58 C700.5,60.1 697.5,62.9 695.1,66.2 C692.7,69.6 691,73.4 689.8,77.8 C688.7,82.2 688.1,86.5 688.1,90.9 C688.1,95.4 688.7,99.8 689.8,104.1 C690.9,108.4 692.7,112.3 695.1,115.7 C697.5,119.1 700.5,121.9 704.2,124 C707.9,126.2 712.3,127.2 717.3,127.2 Z M775.7,39.7 L792.8,39.7 L792.8,8.9 L815.4,8.9 L815.4,39.7 L835.8,39.7 L835.8,56.6 L815.4,56.6 L815.4,111.4 C815.4,113.8 815.5,115.8 815.7,117.6 C815.9,119.3 816.4,120.8 817.1,122 C817.8,123.2 818.9,124.1 820.4,124.7 C821.9,125.3 823.8,125.6 826.4,125.6 C828,125.6 829.6,125.6 831.2,125.5 C832.8,125.4 834.4,125.2 836,124.8 L836,142.3 C833.5,142.6 831,142.8 828.7,143.1 C826.3,143.4 823.9,143.5 821.4,143.5 C815.4,143.5 810.6,142.9 807,141.8 C803.4,140.7 800.5,139 798.5,136.8 C796.4,134.6 795.1,131.9 794.3,128.6 C793.6,125.3 793.1,121.5 793,117.3 L793,56.8 L775.9,56.8 L775.9,39.7 L775.7,39.7 Z" id="Shape"></path>
                </g>
                <g id="Star">
                    <polygon id="Path" fill="#00B67A" points="271.3 98.6 167.7 98.6 135.7 0 103.6 98.6 0 98.5 83.9 159.5 51.8 258 135.7 197.1 219.5 258 187.5 159.5 271.3 98.6 271.3 98.6"></polygon>
                    <polygon id="Path" fill="#005128" points="194.7 181.8 187.5 159.5 135.7 197.1"></polygon>
                </g>
            </g>
            <g id="Trustpilot_ratings_4star-RGB" transform="translate(0.000000, 334.000000)">
                <rect id="Rectangle-path" fill="#73CF11" x="0" y="0" width="212.4375" height="212"></rect>
                <rect id="Rectangle-path" fill="#73CF11" x="230.140625" y="0" width="212.4375" height="212"></rect>
                <rect id="Rectangle-path" fill="#73CF11" x="460.28125" y="0" width="212.4375" height="212"></rect>
                <rect id="Rectangle-path" fill="#73CF11" x="690.421875" y="0" width="212.4375" height="212"></rect>
                <rect id="Rectangle-path" fill="#DCDCE6" x="920.5625" y="0" width="212.4375" height="212"></rect>
                <path d="M106.21875,142.879167 L138.526953,134.708333 L152.025586,176.225 L106.21875,142.879167 Z M180.571875,89.2166667 L123.700586,89.2166667 L106.21875,35.775 L88.7369141,89.2166667 L31.865625,89.2166667 L77.89375,122.341667 L60.4119141,175.783333 L106.440039,142.658333 L134.765039,122.341667 L180.571875,89.2166667 L180.571875,89.2166667 L180.571875,89.2166667 L180.571875,89.2166667 Z" id="Shape" fill="#FFFFFF"></path>
                <path d="M336.359375,142.879167 L368.667578,134.708333 L382.166211,176.225 L336.359375,142.879167 Z M410.7125,89.2166667 L353.841211,89.2166667 L336.359375,35.775 L318.877539,89.2166667 L262.00625,89.2166667 L308.034375,122.341667 L290.552539,175.783333 L336.580664,142.658333 L364.905664,122.341667 L410.7125,89.2166667 L410.7125,89.2166667 L410.7125,89.2166667 L410.7125,89.2166667 Z" id="Shape" fill="#FFFFFF"></path>
                <path d="M566.5,142.879167 L598.808203,134.708333 L612.306836,176.225 L566.5,142.879167 Z M640.853125,89.2166667 L583.981836,89.2166667 L566.5,35.775 L549.018164,89.2166667 L492.146875,89.2166667 L538.175,122.341667 L520.693164,175.783333 L566.721289,142.658333 L595.046289,122.341667 L640.853125,89.2166667 L640.853125,89.2166667 L640.853125,89.2166667 L640.853125,89.2166667 Z" id="Shape" fill="#FFFFFF"></path>
                <path d="M796.640625,142.879167 L828.948828,134.708333 L842.447461,176.225 L796.640625,142.879167 Z M870.99375,89.2166667 L814.122461,89.2166667 L796.640625,35.775 L779.158789,89.2166667 L722.2875,89.2166667 L768.315625,122.341667 L750.833789,175.783333 L796.861914,142.658333 L825.186914,122.341667 L870.99375,89.2166667 L870.99375,89.2166667 L870.99375,89.2166667 L870.99375,89.2166667 Z" id="Shape" fill="#FFFFFF"></path>
                <path d="M1026.78125,142.879167 L1059.08945,134.708333 L1072.58809,176.225 L1026.78125,142.879167 Z M1101.13438,89.2166667 L1044.26309,89.2166667 L1026.78125,35.775 L1009.29941,89.2166667 L952.428125,89.2166667 L998.45625,122.341667 L980.974414,175.783333 L1027.00254,142.658333 L1055.32754,122.341667 L1101.13438,89.2166667 L1101.13438,89.2166667 L1101.13438,89.2166667 L1101.13438,89.2166667 Z" id="Shape" fill="#FFFFFF"></path>
            </g>
        </g>
    </g>
</svg>